<?xml version="1.0" encoding="UTF-8" standalone="no"?>
<!-- Created with Inkscape (http://www.inkscape.org/) -->

<svg
   xmlns:dc="http://purl.org/dc/elements/1.1/"
   xmlns:cc="http://creativecommons.org/ns#"
   xmlns:rdf="http://www.w3.org/1999/02/22-rdf-syntax-ns#"
   xmlns:svg="http://www.w3.org/2000/svg"
   xmlns="http://www.w3.org/2000/svg"
   xmlns:sodipodi="http://sodipodi.sourceforge.net/DTD/sodipodi-0.dtd"
   xmlns:inkscape="http://www.inkscape.org/namespaces/inkscape"
   width="744.09448819"
   height="1052.3622047"
   id="svg2"
   version="1.1"
   inkscape:version="0.48.5 r10040"
   sodipodi:docname="New document 1">
  <sodipodi:namedview
     id="base"
     pagecolor="#ffffff"
     bordercolor="#666666"
     borderopacity="1.0"
     inkscape:pageopacity="0.0"
     inkscape:pageshadow="2"
     inkscape:zoom="0.5"
     inkscape:cx="199.56939"
     inkscape:cy="-56.76261"
     inkscape:document-units="px"
     inkscape:current-layer="layer1"
     showgrid="false"
     inkscape:window-width="1920"
     inkscape:window-height="1018"
     inkscape:window-x="-8"
     inkscape:window-y="-8"
     inkscape:window-maximized="1"
     showborder="false" />
  <defs
     id="defs4" />
  <metadata
     id="metadata7">
    <rdf:RDF>
      <cc:Work
         rdf:about="">
        <dc:format>image/svg+xml</dc:format>
        <dc:type
           rdf:resource="http://purl.org/dc/dcmitype/StillImage" />
        <dc:title></dc:title>
      </cc:Work>
    </rdf:RDF>
  </metadata>
  <g
     id="layer1"
     inkscape:groupmode="layer"
     inkscape:label="Layer 1">
    <g
       id="g3086">
      <path
         inkscape:label="part"
         style="stroke:#000000;fill:none"
         d="M 46.0629921258,598.818897635 L 75.0676862474,598.818897635 L 75.0676862474,588.188976376 L 115.180648095,588.188976376 L 115.180648095,598.818897635 L 154.655814654,598.818897635 L 154.655814654,588.188976376 L 194.768776501,588.188976376 L 194.768776501,598.818897635 L 234.243943061,598.818897635 L 234.243943061,588.188976376 L 274.356904908,588.188976376 L 274.356904908,598.818897635 L 313.832071468,598.818897635 L 313.832071468,588.188976376 L 353.945033315,588.188976376 L 353.945033315,598.818897635 L 393.420199874,598.818897635 L 393.420199874,588.188976376 L 433.533161721,588.188976376 L 433.533161721,598.818897635 L 473.008328281,598.818897635 L 473.008328281,588.188976376 L 513.121290128,588.188976376 L 513.121290128,598.818897635 L 542.12598425,598.818897635 "
         id="path2998" />
      <path
         inkscape:label="part"
         style="stroke:#000000;fill:none"
         d="M 542.12598425,598.818897635 L 542.12598425,627.823591757 L 552.75590551,627.823591757 L 552.75590551,667.936553604 L 542.12598425,667.936553604 L 542.12598425,707.411720164 L 552.75590551,707.411720164 L 552.75590551,747.524682011 L 542.12598425,747.524682011 L 542.12598425,786.99984857 L 552.75590551,786.99984857 L 552.75590551,827.112810418 L 542.12598425,827.112810418 L 542.12598425,866.587976977 L 552.75590551,866.587976977 L 552.75590551,906.700938824 L 542.12598425,906.700938824 L 542.12598425,946.176105384 L 552.75590551,946.176105384 L 552.75590551,986.289067231 L 542.12598425,986.289067231 L 542.12598425,1025.76423379 L 552.75590551,1025.76423379 L 552.75590551,1065.87719564 L 542.12598425,1065.87719564 L 542.12598425,1094.88188976 "
         id="path3000" />
      <path
         inkscape:label="part"
         style="stroke:#000000;fill:none"
         d="M 542.12598425,1094.88188976 L 513.121290128,1094.88188976 L 513.121290128,1105.51181102 L 473.008328281,1105.51181102 L 473.008328281,1094.88188976 L 433.533161721,1094.88188976 L 433.533161721,1105.51181102 L 393.420199874,1105.51181102 L 393.420199874,1094.88188976 L 353.945033315,1094.88188976 L 353.945033315,1105.51181102 L 313.832071468,1105.51181102 L 313.832071468,1094.88188976 L 274.356904908,1094.88188976 L 274.356904908,1105.51181102 L 234.243943061,1105.51181102 L 234.243943061,1094.88188976 L 194.768776501,1094.88188976 L 194.768776501,1105.51181102 L 154.655814654,1105.51181102 L 154.655814654,1094.88188976 L 115.180648095,1094.88188976 L 115.180648095,1105.51181102 L 75.0676862474,1105.51181102 L 75.0676862474,1094.88188976 L 46.0629921258,1094.88188976 "
         id="path3002" />
      <path
         inkscape:label="part"
         style="stroke:#000000;fill:none"
         d="M 46.0629921258,1094.88188976 L 46.0629921258,1065.87719564 L 35.433070866,1065.87719564 L 35.433070866,1025.76423379 L 46.0629921258,1025.76423379 L 46.0629921258,986.289067231 L 35.433070866,986.289067231 L 35.433070866,946.176105384 L 46.0629921258,946.176105384 L 46.0629921258,906.700938824 L 35.433070866,906.700938824 L 35.433070866,866.587976977 L 46.0629921258,866.587976977 L 46.0629921258,827.112810418 L 35.433070866,827.112810418 L 35.433070866,786.99984857 L 46.0629921258,786.99984857 L 46.0629921258,747.524682011 L 35.433070866,747.524682011 L 35.433070866,707.411720164 L 46.0629921258,707.411720164 L 46.0629921258,667.936553604 L 35.433070866,667.936553604 L 35.433070866,627.823591757 L 46.0629921258,627.823591757 L 46.0629921258,598.818897635 "
         id="path3004" />
    </g>
    <g
       id="g3074">
      <path
         inkscape:label="part"
         style="stroke:#000000;fill:none"
         d="M 1151.57480315,598.818897635 L 1180.57949727,598.818897635 L 1180.57949727,588.188976376 L 1220.69245911,588.188976376 L 1220.69245911,598.818897635 L 1260.16762567,598.818897635 L 1260.16762567,588.188976376 L 1300.28058752,588.188976376 L 1300.28058752,598.818897635 L 1339.75575408,598.818897635 L 1339.75575408,588.188976376 L 1379.86871593,588.188976376 L 1379.86871593,598.818897635 L 1419.34388249,598.818897635 L 1419.34388249,588.188976376 L 1459.45684433,588.188976376 L 1459.45684433,598.818897635 L 1498.93201089,598.818897635 L 1498.93201089,588.188976376 L 1539.04497274,588.188976376 L 1539.04497274,598.818897635 L 1578.5201393,598.818897635 L 1578.5201393,588.188976376 L 1618.63310115,588.188976376 L 1618.63310115,598.818897635 L 1647.63779527,598.818897635 "
         id="path3014" />
      <path
         inkscape:label="part"
         style="stroke:#000000;fill:none"
         d="M 1647.63779527,598.818897635 L 1647.63779527,627.823591757 L 1658.26771653,627.823591757 L 1658.26771653,667.936553604 L 1647.63779527,667.936553604 L 1647.63779527,707.411720164 L 1658.26771653,707.411720164 L 1658.26771653,747.524682011 L 1647.63779527,747.524682011 L 1647.63779527,786.99984857 L 1658.26771653,786.99984857 L 1658.26771653,827.112810418 L 1647.63779527,827.112810418 L 1647.63779527,866.587976977 L 1658.26771653,866.587976977 L 1658.26771653,906.700938824 L 1647.63779527,906.700938824 L 1647.63779527,946.176105384 L 1658.26771653,946.176105384 L 1658.26771653,986.289067231 L 1647.63779527,986.289067231 L 1647.63779527,1025.76423379 L 1658.26771653,1025.76423379 L 1658.26771653,1065.87719564 L 1647.63779527,1065.87719564 L 1647.63779527,1094.88188976 "
         id="path3016" />
      <path
         inkscape:label="part"
         style="stroke:#000000;fill:none"
         d="M 1647.63779527,1094.88188976 L 1618.63310115,1094.88188976 L 1618.63310115,1105.51181102 L 1578.5201393,1105.51181102 L 1578.5201393,1094.88188976 L 1539.04497274,1094.88188976 L 1539.04497274,1105.51181102 L 1498.93201089,1105.51181102 L 1498.93201089,1094.88188976 L 1459.45684433,1094.88188976 L 1459.45684433,1105.51181102 L 1419.34388249,1105.51181102 L 1419.34388249,1094.88188976 L 1379.86871593,1094.88188976 L 1379.86871593,1105.51181102 L 1339.75575408,1105.51181102 L 1339.75575408,1094.88188976 L 1300.28058752,1094.88188976 L 1300.28058752,1105.51181102 L 1260.16762567,1105.51181102 L 1260.16762567,1094.88188976 L 1220.69245911,1094.88188976 L 1220.69245911,1105.51181102 L 1180.57949727,1105.51181102 L 1180.57949727,1094.88188976 L 1151.57480315,1094.88188976 "
         id="path3018" />
      <path
         inkscape:label="part"
         style="stroke:#000000;fill:none"
         d="M 1151.57480315,1094.88188976 L 1151.57480315,1065.87719564 L 1140.94488189,1065.87719564 L 1140.94488189,1025.76423379 L 1151.57480315,1025.76423379 L 1151.57480315,986.289067231 L 1140.94488189,986.289067231 L 1140.94488189,946.176105384 L 1151.57480315,946.176105384 L 1151.57480315,906.700938824 L 1140.94488189,906.700938824 L 1140.94488189,866.587976977 L 1151.57480315,866.587976977 L 1151.57480315,827.112810418 L 1140.94488189,827.112810418 L 1140.94488189,786.99984857 L 1151.57480315,786.99984857 L 1151.57480315,747.524682011 L 1140.94488189,747.524682011 L 1140.94488189,707.411720164 L 1151.57480315,707.411720164 L 1151.57480315,667.936553604 L 1140.94488189,667.936553604 L 1140.94488189,627.823591757 L 1151.57480315,627.823591757 L 1151.57480315,598.818897635 "
         id="path3020" />
    </g>
    <g
       id="g3068">
      <path
         inkscape:label="part"
         style="stroke:#000000;fill:none"
         d="M 1693.70078739,588.188976376 L 1733.65430042,588.188976376 L 1733.65430042,598.818897635 L 1773.12946698,598.818897635 L 1773.12946698,588.188976376 L 1813.24242883,588.188976376 L 1813.24242883,598.818897635 L 1852.71759539,598.818897635 L 1852.71759539,588.188976376 L 1892.83055723,588.188976376 L 1892.83055723,598.818897635 L 1932.30572379,598.818897635 L 1932.30572379,588.188976376 L 1972.41868564,588.188976376 L 1972.41868564,598.818897635 L 2011.8938522,598.818897635 L 2011.8938522,588.188976376 L 2052.00681405,588.188976376 L 2052.00681405,598.818897635 L 2091.48198061,598.818897635 L 2091.48198061,588.188976376 L 2131.59494245,588.188976376 L 2131.59494245,598.818897635 L 2171.07010901,598.818897635 L 2171.07010901,588.188976376 L 2211.02362204,588.188976376 "
         id="path3022" />
      <path
         inkscape:label="part"
         style="stroke:#000000;fill:none"
         d="M 2211.02362204,588.188976376 L 2211.02362204,628.142489401 L 2200.39370078,628.142489401 L 2200.39370078,667.61765596 L 2211.02362204,667.61765596 L 2211.02362204,707.730617808 L 2200.39370078,707.730617808 L 2200.39370078,747.205784367 L 2211.02362204,747.205784367 L 2211.02362204,787.318746214 L 2200.39370078,787.318746214 L 2200.39370078,826.793912774 L 2211.02362204,826.793912774 L 2211.02362204,866.906874621 L 2200.39370078,866.906874621 L 2200.39370078,906.38204118 L 2211.02362204,906.38204118 L 2211.02362204,946.495003028 L 2200.39370078,946.495003028 L 2200.39370078,985.970169587 L 2211.02362204,985.970169587 L 2211.02362204,1026.08313143 L 2200.39370078,1026.08313143 L 2200.39370078,1065.55829799 L 2211.02362204,1065.55829799 L 2211.02362204,1105.51181102 "
         id="path3024" />
      <path
         inkscape:label="part"
         style="stroke:#000000;fill:none"
         d="M 2211.02362204,1105.51181102 L 2171.07010901,1105.51181102 L 2171.07010901,1094.88188976 L 2131.59494245,1094.88188976 L 2131.59494245,1105.51181102 L 2091.48198061,1105.51181102 L 2091.48198061,1094.88188976 L 2052.00681405,1094.88188976 L 2052.00681405,1105.51181102 L 2011.8938522,1105.51181102 L 2011.8938522,1094.88188976 L 1972.41868564,1094.88188976 L 1972.41868564,1105.51181102 L 1932.30572379,1105.51181102 L 1932.30572379,1094.88188976 L 1892.83055723,1094.88188976 L 1892.83055723,1105.51181102 L 1852.71759539,1105.51181102 L 1852.71759539,1094.88188976 L 1813.24242883,1094.88188976 L 1813.24242883,1105.51181102 L 1773.12946698,1105.51181102 L 1773.12946698,1094.88188976 L 1733.65430042,1094.88188976 L 1733.65430042,1105.51181102 L 1693.70078739,1105.51181102 "
         id="path3026" />
      <path
         inkscape:label="part"
         style="stroke:#000000;fill:none"
         d="M 1693.70078739,1105.51181102 L 1693.70078739,1065.55829799 L 1704.33070865,1065.55829799 L 1704.33070865,1026.08313143 L 1693.70078739,1026.08313143 L 1693.70078739,985.970169587 L 1704.33070865,985.970169587 L 1704.33070865,946.495003028 L 1693.70078739,946.495003028 L 1693.70078739,906.38204118 L 1704.33070865,906.38204118 L 1704.33070865,866.906874621 L 1693.70078739,866.906874621 L 1693.70078739,826.793912774 L 1704.33070865,826.793912774 L 1704.33070865,787.318746214 L 1693.70078739,787.318746214 L 1693.70078739,747.205784367 L 1704.33070865,747.205784367 L 1704.33070865,707.730617808 L 1693.70078739,707.730617808 L 1693.70078739,667.61765596 L 1704.33070865,667.61765596 L 1704.33070865,628.142489401 L 1693.70078739,628.142489401 L 1693.70078739,588.188976376 "
         id="path3028" />
    </g>
    <g
       id="g3080">
      <path
         inkscape:label="part"
         style="stroke:#000000;fill:none"
         d="M 588.188976376,46.0629921258 L 627.823591757,46.0629921258 L 627.823591757,35.433070866 L 667.936553604,35.433070866 L 667.936553604,46.0629921258 L 707.411720164,46.0629921258 L 707.411720164,35.433070866 L 747.524682011,35.433070866 L 747.524682011,46.0629921258 L 786.99984857,46.0629921258 L 786.99984857,35.433070866 L 827.112810418,35.433070866 L 827.112810418,46.0629921258 L 866.587976977,46.0629921258 L 866.587976977,35.433070866 L 906.700938824,35.433070866 L 906.700938824,46.0629921258 L 946.176105384,46.0629921258 L 946.176105384,35.433070866 L 986.289067231,35.433070866 L 986.289067231,46.0629921258 L 1025.76423379,46.0629921258 L 1025.76423379,35.433070866 L 1065.87719564,35.433070866 L 1065.87719564,46.0629921258 L 1105.51181102,46.0629921258 "
         id="path3030" />
      <path
         inkscape:label="part"
         style="stroke:#000000;fill:none"
         d="M 1105.51181102,46.0629921258 L 1105.51181102,75.3865838913 L 1094.88188976,75.3865838913 L 1094.88188976,114.861750451 L 1105.51181102,114.861750451 L 1105.51181102,154.974712298 L 1094.88188976,154.974712298 L 1094.88188976,194.449878857 L 1105.51181102,194.449878857 L 1105.51181102,234.562840705 L 1094.88188976,234.562840705 L 1094.88188976,274.038007264 L 1105.51181102,274.038007264 L 1105.51181102,314.150969111 L 1094.88188976,314.150969111 L 1094.88188976,353.626135671 L 1105.51181102,353.626135671 L 1105.51181102,393.739097518 L 1094.88188976,393.739097518 L 1094.88188976,433.214264078 L 1105.51181102,433.214264078 L 1105.51181102,473.327225925 L 1094.88188976,473.327225925 L 1094.88188976,512.802392484 L 1105.51181102,512.802392484 L 1105.51181102,542.12598425 "
         id="path3032" />
      <path
         inkscape:label="part"
         style="stroke:#000000;fill:none"
         d="M 1105.51181102,542.12598425 L 1065.87719564,542.12598425 L 1065.87719564,552.75590551 L 1025.76423379,552.75590551 L 1025.76423379,542.12598425 L 986.289067231,542.12598425 L 986.289067231,552.75590551 L 946.176105384,552.75590551 L 946.176105384,542.12598425 L 906.700938824,542.12598425 L 906.700938824,552.75590551 L 866.587976977,552.75590551 L 866.587976977,542.12598425 L 827.112810418,542.12598425 L 827.112810418,552.75590551 L 786.99984857,552.75590551 L 786.99984857,542.12598425 L 747.524682011,542.12598425 L 747.524682011,552.75590551 L 707.411720164,552.75590551 L 707.411720164,542.12598425 L 667.936553604,542.12598425 L 667.936553604,552.75590551 L 627.823591757,552.75590551 L 627.823591757,542.12598425 L 588.188976376,542.12598425 "
         id="path3034" />
      <path
         inkscape:label="part"
         style="stroke:#000000;fill:none"
         d="M 588.188976376,542.12598425 L 588.188976376,512.802392484 L 598.818897635,512.802392484 L 598.818897635,473.327225925 L 588.188976376,473.327225925 L 588.188976376,433.214264078 L 598.818897635,433.214264078 L 598.818897635,393.739097518 L 588.188976376,393.739097518 L 588.188976376,353.626135671 L 598.818897635,353.626135671 L 598.818897635,314.150969111 L 588.188976376,314.150969111 L 588.188976376,274.038007264 L 598.818897635,274.038007264 L 598.818897635,234.562840705 L 588.188976376,234.562840705 L 588.188976376,194.449878857 L 598.818897635,194.449878857 L 598.818897635,154.974712298 L 588.188976376,154.974712298 L 588.188976376,114.861750451 L 598.818897635,114.861750451 L 598.818897635,75.3865838913 L 588.188976376,75.3865838913 L 588.188976376,46.0629921258 "
         id="path3036" />
    </g>
    <rect
       style="fill:none"
       id="rect3874"
       width="648.57141"
       height="314.28571"
       x="-985.71429"
       y="209.50504" />
    <rect
       style="fill:none"
       id="rect3876"
       width="365.71429"
       height="308.57144"
       x="-900"
       y="289.50504" />
    <g
       id="g4124">
      <g
         id="g3098">
        <path
           id="path3006"
           d="M 588.188976376,588.188976376 L 628.142489401,588.188976376 L 628.142489401,598.818897635 L 667.61765596,598.818897635 L 667.61765596,588.188976376 L 707.730617808,588.188976376 L 707.730617808,598.818897635 L 747.205784367,598.818897635 L 747.205784367,588.188976376 L 787.318746214,588.188976376 L 787.318746214,598.818897635 L 826.793912774,598.818897635 L 826.793912774,588.188976376 L 866.906874621,588.188976376 L 866.906874621,598.818897635 L 906.38204118,598.818897635 L 906.38204118,588.188976376 L 946.495003028,588.188976376 L 946.495003028,598.818897635 L 985.970169587,598.818897635 L 985.970169587,588.188976376 L 1026.08313143,588.188976376 L 1026.08313143,598.818897635 L 1065.55829799,598.818897635 L 1065.55829799,588.188976376 L 1105.51181102,588.188976376 "
           style="stroke:#000000;fill:none"
           inkscape:label="part" />
        <path
           id="path3008"
           d="M 1105.51181102,588.188976376 L 1105.51181102,628.142489401 L 1094.88188976,628.142489401 L 1094.88188976,667.61765596 L 1105.51181102,667.61765596 L 1105.51181102,707.730617808 L 1094.88188976,707.730617808 L 1094.88188976,747.205784367 L 1105.51181102,747.205784367 L 1105.51181102,787.318746214 L 1094.88188976,787.318746214 L 1094.88188976,826.793912774 L 1105.51181102,826.793912774 L 1105.51181102,866.906874621 L 1094.88188976,866.906874621 L 1094.88188976,906.38204118 L 1105.51181102,906.38204118 L 1105.51181102,946.495003028 L 1094.88188976,946.495003028 L 1094.88188976,985.970169587 L 1105.51181102,985.970169587 L 1105.51181102,1026.08313143 L 1094.88188976,1026.08313143 L 1094.88188976,1065.55829799 L 1105.51181102,1065.55829799 L 1105.51181102,1105.51181102 "
           style="stroke:#000000;fill:none"
           inkscape:label="part" />
        <path
           id="path3010"
           d="M 1105.51181102,1105.51181102 L 1065.55829799,1105.51181102 L 1065.55829799,1094.88188976 L 1026.08313143,1094.88188976 L 1026.08313143,1105.51181102 L 985.970169587,1105.51181102 L 985.970169587,1094.88188976 L 946.495003028,1094.88188976 L 946.495003028,1105.51181102 L 906.38204118,1105.51181102 L 906.38204118,1094.88188976 L 866.906874621,1094.88188976 L 866.906874621,1105.51181102 L 826.793912774,1105.51181102 L 826.793912774,1094.88188976 L 787.318746214,1094.88188976 L 787.318746214,1105.51181102 L 747.205784367,1105.51181102 L 747.205784367,1094.88188976 L 707.730617808,1094.88188976 L 707.730617808,1105.51181102 L 667.61765596,1105.51181102 L 667.61765596,1094.88188976 L 628.142489401,1094.88188976 L 628.142489401,1105.51181102 L 588.188976376,1105.51181102 "
           style="stroke:#000000;fill:none"
           inkscape:label="part" />
        <path
           id="path3012"
           d="M 588.188976376,1105.51181102 L 588.188976376,1065.55829799 L 598.818897635,1065.55829799 L 598.818897635,1026.08313143 L 588.188976376,1026.08313143 L 588.188976376,985.970169587 L 598.818897635,985.970169587 L 598.818897635,946.495003028 L 588.188976376,946.495003028 L 588.188976376,906.38204118 L 598.818897635,906.38204118 L 598.818897635,866.906874621 L 588.188976376,866.906874621 L 588.188976376,826.793912774 L 598.818897635,826.793912774 L 598.818897635,787.318746214 L 588.188976376,787.318746214 L 588.188976376,747.205784367 L 598.818897635,747.205784367 L 598.818897635,707.730617808 L 588.188976376,707.730617808 L 588.188976376,667.61765596 L 598.818897635,667.61765596 L 598.818897635,628.142489401 L 588.188976376,628.142489401 L 588.188976376,588.188976376 "
           style="stroke:#000000;fill:none"
           inkscape:label="part" />
      </g>
      <g
         transform="translate(1517.7272,294.28571)"
         id="g3880">
        <rect
           style="fill:none;stroke:#000000;stroke-width:1px;stroke-linecap:butt;stroke-linejoin:miter;stroke-opacity:1"
           id="rect3104"
           width="363.96063"
           height="200.96851"
           x="-852.85718"
           y="351.39368" />
        <rect
           style="fill:none;stroke:#ff0000;stroke-width:1;stroke-opacity:1"
           id="rect3878"
           width="392.3071"
           height="229.31496"
           x="-867.0304"
           y="337.22046" />
      </g>
      <g
         transform="translate(1790.3711,704)"
         id="g3922">
        <rect
           style="fill:none;stroke:#ff0000;stroke-opacity:1"
           id="rect3884"
           width="347.24408"
           height="166.53543"
           x="-1117.1428"
           y="198.07646" />
        <rect
           style="fill:none;stroke:#000000;stroke-opacity:1"
           id="rect3886"
           width="340.15747"
           height="124.01575"
           x="-1113.5995"
           y="219.3363" />
        <path
           sodipodi:type="arc"
           style="fill:none;stroke:#000000;stroke-width:2.64967322;stroke-opacity:1"
           id="path3888"
           sodipodi:cx="-1040.6438"
           sodipodi:cy="252.69949"
           sodipodi:rx="13.227503"
           sodipodi:ry="13.227503"
           d="m -1027.4163,252.69949 c 0,7.30535 -5.9222,13.22751 -13.2275,13.22751 -7.3053,0 -13.2275,-5.92216 -13.2275,-13.22751 0,-7.30534 5.9222,-13.2275 13.2275,-13.2275 7.3053,0 13.2275,5.92216 13.2275,13.2275 z"
           transform="matrix(0.37740502,0,0,0.37740502,-715.86447,111.24016)" />
        <path
           sodipodi:type="arc"
           style="fill:none;stroke:#000000;stroke-width:2.64967322;stroke-opacity:1"
           id="path3888-1"
           sodipodi:cx="-1040.6438"
           sodipodi:cy="252.69949"
           sodipodi:rx="13.227503"
           sodipodi:ry="13.227503"
           d="m -1027.4163,252.69949 c 0,7.30535 -5.9222,13.22751 -13.2275,13.22751 -7.3053,0 -13.2275,-5.92216 -13.2275,-13.22751 0,-7.30534 5.9222,-13.2275 13.2275,-13.2275 7.3053,0 13.2275,5.92216 13.2275,13.2275 z"
           transform="matrix(0.37740502,0,0,0.37740502,-715.86447,260.70748)" />
        <path
           sodipodi:type="arc"
           style="fill:none;stroke:#000000;stroke-width:2.64967322;stroke-opacity:1"
           id="path3888-7"
           sodipodi:cx="-1040.6438"
           sodipodi:cy="252.69949"
           sodipodi:rx="13.227503"
           sodipodi:ry="13.227503"
           d="m -1027.4163,252.69949 c 0,7.30535 -5.9222,13.22751 -13.2275,13.22751 -7.3053,0 -13.2275,-5.92216 -13.2275,-13.22751 0,-7.30534 5.9222,-13.2275 13.2275,-13.2275 7.3053,0 13.2275,5.92216 13.2275,13.2275 z"
           transform="matrix(0.37740502,0,0,0.37740502,-385.68848,260.70748)" />
        <path
           sodipodi:type="arc"
           style="fill:none;stroke:#000000;stroke-width:2.64967322;stroke-opacity:1"
           id="path3888-4"
           sodipodi:cx="-1040.6438"
           sodipodi:cy="252.69949"
           sodipodi:rx="13.227503"
           sodipodi:ry="13.227503"
           d="m -1027.4163,252.69949 c 0,7.30535 -5.9222,13.22751 -13.2275,13.22751 -7.3053,0 -13.2275,-5.92216 -13.2275,-13.22751 0,-7.30534 5.9222,-13.2275 13.2275,-13.2275 7.3053,0 13.2275,5.92216 13.2275,13.2275 z"
           transform="matrix(0.37740502,0,0,0.37740502,-385.68848,111.24016)" />
      </g>
    </g>
    <g
       id="g4095">
      <g
         id="g3092">
        <path
           id="path2990"
           d="M 588.188976376,1151.57480315 L 627.823591757,1151.57480315 L 627.823591757,1140.94488189 L 667.936553604,1140.94488189 L 667.936553604,1151.57480315 L 707.411720164,1151.57480315 L 707.411720164,1140.94488189 L 747.524682011,1140.94488189 L 747.524682011,1151.57480315 L 786.99984857,1151.57480315 L 786.99984857,1140.94488189 L 827.112810418,1140.94488189 L 827.112810418,1151.57480315 L 866.587976977,1151.57480315 L 866.587976977,1140.94488189 L 906.700938824,1140.94488189 L 906.700938824,1151.57480315 L 946.176105384,1151.57480315 L 946.176105384,1140.94488189 L 986.289067231,1140.94488189 L 986.289067231,1151.57480315 L 1025.76423379,1151.57480315 L 1025.76423379,1140.94488189 L 1065.87719564,1140.94488189 L 1065.87719564,1151.57480315 L 1105.51181102,1151.57480315 "
           style="stroke:#000000;fill:none"
           inkscape:label="part" />
        <path
           id="path2992"
           d="M 1105.51181102,1151.57480315 L 1105.51181102,1180.89839491 L 1094.88188976,1180.89839491 L 1094.88188976,1220.37356147 L 1105.51181102,1220.37356147 L 1105.51181102,1260.48652332 L 1094.88188976,1260.48652332 L 1094.88188976,1299.96168988 L 1105.51181102,1299.96168988 L 1105.51181102,1340.07465172 L 1094.88188976,1340.07465172 L 1094.88188976,1379.54981828 L 1105.51181102,1379.54981828 L 1105.51181102,1419.66278013 L 1094.88188976,1419.66278013 L 1094.88188976,1459.13794669 L 1105.51181102,1459.13794669 L 1105.51181102,1499.25090854 L 1094.88188976,1499.25090854 L 1094.88188976,1538.7260751 L 1105.51181102,1538.7260751 L 1105.51181102,1578.83903694 L 1094.88188976,1578.83903694 L 1094.88188976,1618.3142035 L 1105.51181102,1618.3142035 L 1105.51181102,1647.63779527 "
           style="stroke:#000000;fill:none"
           inkscape:label="part" />
        <path
           id="path2994"
           d="M 1105.51181102,1647.63779527 L 1065.87719564,1647.63779527 L 1065.87719564,1658.26771653 L 1025.76423379,1658.26771653 L 1025.76423379,1647.63779527 L 986.289067231,1647.63779527 L 986.289067231,1658.26771653 L 946.176105384,1658.26771653 L 946.176105384,1647.63779527 L 906.700938824,1647.63779527 L 906.700938824,1658.26771653 L 866.587976977,1658.26771653 L 866.587976977,1647.63779527 L 827.112810418,1647.63779527 L 827.112810418,1658.26771653 L 786.99984857,1658.26771653 L 786.99984857,1647.63779527 L 747.524682011,1647.63779527 L 747.524682011,1658.26771653 L 707.411720164,1658.26771653 L 707.411720164,1647.63779527 L 667.936553604,1647.63779527 L 667.936553604,1658.26771653 L 627.823591757,1658.26771653 L 627.823591757,1647.63779527 L 588.188976376,1647.63779527 "
           style="stroke:#000000;fill:none"
           inkscape:label="part" />
        <path
           id="path2996"
           d="M 588.188976376,1647.63779527 L 588.188976376,1618.3142035 L 598.818897635,1618.3142035 L 598.818897635,1578.83903694 L 588.188976376,1578.83903694 L 588.188976376,1538.7260751 L 598.818897635,1538.7260751 L 598.818897635,1499.25090854 L 588.188976376,1499.25090854 L 588.188976376,1459.13794669 L 598.818897635,1459.13794669 L 598.818897635,1419.66278013 L 588.188976376,1419.66278013 L 588.188976376,1379.54981828 L 598.818897635,1379.54981828 L 598.818897635,1340.07465172 L 588.188976376,1340.07465172 L 588.188976376,1299.96168988 L 598.818897635,1299.96168988 L 598.818897635,1260.48652332 L 588.188976376,1260.48652332 L 588.188976376,1220.37356147 L 598.818897635,1220.37356147 L 598.818897635,1180.89839491 L 588.188976376,1180.89839491 L 588.188976376,1151.57480315 "
           style="stroke:#000000;fill:none"
           inkscape:label="part" />
      </g>
      <g
         transform="translate(1385.4225,948.16599)"
         id="g3992">
        <path
           sodipodi:type="arc"
           style="fill:none;stroke:#000000;stroke-width:9.19580173;stroke-opacity:1"
           id="path3930"
           sodipodi:cx="-600.58612"
           sodipodi:cy="575.42615"
           sodipodi:rx="48.57682"
           sodipodi:ry="48.57682"
           d="m -552.0093,575.42615 c 0,26.82823 -21.74858,48.57682 -48.57682,48.57682 -26.82824,0 -48.57682,-21.74859 -48.57682,-48.57682 0,-26.82824 21.74858,-48.57682 48.57682,-48.57682 26.82824,0 48.57682,21.74858 48.57682,48.57682 z"
           transform="matrix(0.10874528,0,0,0.10874528,-559.61526,561.42808)" />
        <path
           sodipodi:type="arc"
           style="fill:none;stroke:#000000;stroke-width:9.19580173;stroke-opacity:1"
           id="path3930-0"
           sodipodi:cx="-600.58612"
           sodipodi:cy="575.42615"
           sodipodi:rx="48.57682"
           sodipodi:ry="48.57682"
           d="m -552.0093,575.42615 c 0,26.82823 -21.74858,48.57682 -48.57682,48.57682 -26.82824,0 -48.57682,-21.74859 -48.57682,-48.57682 0,-26.82824 21.74858,-48.57682 48.57682,-48.57682 26.82824,0 48.57682,21.74858 48.57682,48.57682 z"
           transform="matrix(0.10874528,0,0,0.10874528,-453.31604,561.42808)" />
        <rect
           style="fill:none;stroke:#000000;stroke-width:1;stroke-opacity:1"
           id="rect3950"
           width="52.149605"
           height="25.574802"
           x="-597.85138"
           y="611.21558" />
        <path
           style="fill:none;stroke:#ff0000;stroke-width:1;stroke-opacity:1"
           d="m -617.82345,603.25298 c -11.46534,0 -20.78125,9.28466 -20.78125,20.75 0,11.46534 9.31591,20.75 20.78125,20.75 0.16846,0 0.3325,0.004 0.5,0 l 91.125,0 c 0.1675,0.004 0.33154,0 0.5,0 11.46534,0 20.75,-9.28466 20.75,-20.75 0,-11.46534 -9.28466,-20.75 -20.75,-20.75 -0.16846,0 -0.3325,-0.004 -0.5,0 l -91.125,0 c -0.1675,-0.004 -0.33154,0 -0.5,0 z"
           id="path3958"
           inkscape:connector-curvature="0" />
        <text
           xml:space="preserve"
           style="font-size:12px;font-style:normal;font-variant:normal;font-weight:normal;font-stretch:normal;line-height:125%;letter-spacing:0px;word-spacing:0px;fill:#000000;fill-opacity:1;stroke:none;font-family:Anonymous Pro;-inkscape-font-specification:Anonymous Pro"
           x="-636.48358"
           y="659.33679"
           id="text3988"
           sodipodi:linespacing="125%"><tspan
             sodipodi:role="line"
             id="tspan3990"
             x="-636.48358"
             y="659.33679"
             style="font-size:20px">USB Keyboard</tspan></text>
      </g>
      <g
         transform="translate(1572.0001,1048)"
         id="g4065">
        <g
           id="g4020"
           transform="translate(1.5831439,-2.2319365)">
          <path
             transform="matrix(0.70546797,0,0,0.70546797,-180.22934,157.39622)"
             d="m -607.80137,518.89227 c 0,4.13548 -3.35246,7.48794 -7.48794,7.48794 -4.13547,0 -7.48793,-3.35246 -7.48793,-7.48794 0,-4.13547 3.35246,-7.48793 7.48793,-7.48793 4.13548,0 7.48794,3.35246 7.48794,7.48793 z"
             sodipodi:ry="7.4879375"
             sodipodi:rx="7.4879375"
             sodipodi:cy="518.89227"
             sodipodi:cx="-615.28931"
             id="path4000"
             style="fill:none;stroke:#000000;stroke-width:1.41749883;stroke-opacity:1"
             sodipodi:type="arc" />
          <path
             transform="matrix(0.70546797,0,0,0.70546797,-91.646665,157.39622)"
             d="m -607.80137,518.89227 c 0,4.13548 -3.35246,7.48794 -7.48794,7.48794 -4.13547,0 -7.48793,-3.35246 -7.48793,-7.48794 0,-4.13547 3.35246,-7.48793 7.48793,-7.48793 4.13548,0 7.48794,3.35246 7.48794,7.48793 z"
             sodipodi:ry="7.4879375"
             sodipodi:rx="7.4879375"
             sodipodi:cy="518.89227"
             sodipodi:cx="-615.28931"
             id="path4000-4"
             style="fill:none;stroke:#000000;stroke-width:1.41749883;stroke-opacity:1"
             sodipodi:type="arc" />
        </g>
        <rect
           style="fill:none;stroke:#000000;stroke-width:1;stroke-opacity:1"
           id="rect4024"
           width="53.921257"
           height="46.834648"
           x="-595.38239"
           y="497.80884" />
        <path
           style="fill:none;stroke:#ff0000;stroke-width:1px;stroke-linecap:butt;stroke-linejoin:miter;stroke-opacity:1"
           d="m -595.99115,486.4297 55.37018,-0.13302 24.64475,22.29587 c 1.03609,0.93734 5.51903,4.52792 5.51903,12.07944 0,7.55151 -4.81471,11.69661 -5.51903,12.3431 l -25.10923,23.04787 -54.78393,0.18257 -22.97955,-23.05907 c -1.42396,-1.42889 -7.53738,-4.83112 -7.53738,-12.38264 0,-7.55152 6.58121,-11.10564 7.53738,-12.03991 z"
           id="path4054"
           inkscape:connector-curvature="0"
           sodipodi:nodetypes="ccsssccsssc" />
        <text
           xml:space="preserve"
           style="font-size:12px;font-style:normal;font-variant:normal;font-weight:normal;font-stretch:normal;text-align:center;line-height:125%;letter-spacing:0px;word-spacing:0px;text-anchor:middle;fill:#000000;fill-opacity:1;stroke:none;font-family:Anonymous Pro;-inkscape-font-specification:Anonymous Pro"
           x="-568.04382"
           y="564.07446"
           id="text4059"
           sodipodi:linespacing="125%"><tspan
             sodipodi:role="line"
             id="tspan4061"
             x="-568.04382"
             y="564.07446">Ethernet</tspan><tspan
             sodipodi:role="line"
             x="-568.04382"
             y="579.07446"
             id="tspan4063">10/100</tspan></text>
      </g>
      <g
         transform="translate(1578,1082.0464)"
         id="g4088">
        <path
           inkscape:connector-curvature="0"
           style="fill:none;stroke:#000000;stroke-width:1;stroke-opacity:1"
           d="m -920.34375,465.0625 c -8.56779,0 -15.99184,4.99739 -19.5,12.21875 l 0,18.875 c 3.50816,7.22136 10.93221,12.21875 19.5,12.21875 8.56744,0 15.96042,-4.99786 19.46875,-12.21875 l 0,-18.875 c -3.50833,-7.22089 -10.90131,-12.21875 -19.46875,-12.21875 z"
           id="path4075" />
        <path
           sodipodi:type="arc"
           style="fill:none;stroke:#ff0000;stroke-width:0.46231323;stroke-opacity:1"
           id="path4080"
           sodipodi:cx="-940.27155"
           sodipodi:cy="479.58615"
           sodipodi:rx="11.112809"
           sodipodi:ry="11.112809"
           d="m -929.15874,479.58615 c 0,6.13744 -4.97537,11.11281 -11.11281,11.11281 -6.13743,0 -11.1128,-4.97537 -11.1128,-11.11281 0,-6.13743 4.97537,-11.11281 11.1128,-11.11281 6.13744,0 11.11281,4.97538 11.11281,11.11281 z"
           transform="matrix(2.1630356,0,0,2.1630356,1113.4815,-550.64317)" />
        <text
           xml:space="preserve"
           style="font-size:12px;font-style:normal;font-variant:normal;font-weight:normal;font-stretch:normal;text-align:center;line-height:125%;letter-spacing:0px;word-spacing:0px;text-anchor:middle;fill:#000000;fill-opacity:1;stroke:none;font-family:Anonymous Pro;-inkscape-font-specification:Anonymous Pro"
           x="-919.84375"
           y="521.00323"
           id="text4082"
           sodipodi:linespacing="125%"><tspan
             sodipodi:role="line"
             id="tspan4084"
             x="-919.84375"
             y="521.00323">5VDC</tspan><tspan
             sodipodi:role="line"
             x="-919.84375"
             y="536.00323"
             id="tspan4086">2A</tspan></text>
      </g>
    </g>
  </g>
  <g
     id="g3038"
     inkscape:groupmode="layer"
     inkscape:label="newlayer" />
</svg>
